<mxfile host="app.diagrams.net" modified="2024-02-17T16:45:04.273Z" agent="Mozilla/5.0 (Windows NT 10.0; Win64; x64) AppleWebKit/537.36 (KHTML, like Gecko) Chrome/121.0.0.0 Safari/537.36" version="23.1.5" etag="gqkkG2p7SqsrNQ3idhNW" type="device">
  <diagram id="1puRnvE-JXXSaP3qe0Dy" name="PÃ¡gina-1">
    <mxGraphModel dx="1335" dy="1602" grid="0" gridSize="10" guides="1" tooltips="1" connect="1" arrows="1" fold="1" page="0" pageScale="1" pageWidth="827" pageHeight="1169" math="0" shadow="0">
      <root>
        <mxCell id="0" />
        <mxCell id="1" parent="0" />
        <mxCell id="PYzLh-I4QtLLchsuRqWH-5" value="Alumno" style="swimlane;fontStyle=1;align=center;verticalAlign=top;childLayout=stackLayout;horizontal=1;startSize=26;horizontalStack=0;resizeParent=1;resizeParentMax=0;resizeLast=0;collapsible=1;marginBottom=0;whiteSpace=wrap;html=1;fontSize=16;fillColor=#76608a;strokeColor=#432D57;fontColor=#ffffff;" vertex="1" parent="1">
          <mxGeometry x="49" y="-535" width="373" height="333" as="geometry" />
        </mxCell>
        <mxCell id="PYzLh-I4QtLLchsuRqWH-6" value="&lt;div&gt;- nombre: String&amp;nbsp; &amp;nbsp; &amp;nbsp; &amp;nbsp; &amp;nbsp; &amp;nbsp; &amp;nbsp; &amp;nbsp; &amp;nbsp; &amp;nbsp; &amp;nbsp;&lt;/div&gt;&lt;div&gt;- nota: double&amp;nbsp;&amp;nbsp;&lt;/div&gt;" style="text;strokeColor=none;fillColor=none;align=left;verticalAlign=top;spacingLeft=4;spacingRight=4;overflow=hidden;rotatable=0;points=[[0,0.5],[1,0.5]];portConstraint=eastwest;whiteSpace=wrap;html=1;fontSize=16;" vertex="1" parent="PYzLh-I4QtLLchsuRqWH-5">
          <mxGeometry y="26" width="373" height="65" as="geometry" />
        </mxCell>
        <mxCell id="PYzLh-I4QtLLchsuRqWH-7" value="" style="line;strokeWidth=1;fillColor=none;align=left;verticalAlign=middle;spacingTop=-1;spacingLeft=3;spacingRight=3;rotatable=0;labelPosition=right;points=[];portConstraint=eastwest;strokeColor=inherit;fontSize=16;" vertex="1" parent="PYzLh-I4QtLLchsuRqWH-5">
          <mxGeometry y="91" width="373" height="8" as="geometry" />
        </mxCell>
        <mxCell id="PYzLh-I4QtLLchsuRqWH-8" value="&lt;div&gt;+ Alumno(nombre: String, nota: double)&lt;/div&gt;&lt;div&gt;&lt;br&gt;&lt;/div&gt;&lt;div&gt;+ getNombre(): String&amp;nbsp; &amp;nbsp; &amp;nbsp; &amp;nbsp; &amp;nbsp; &amp;nbsp; &amp;nbsp; &amp;nbsp;&amp;nbsp;&lt;/div&gt;&lt;div&gt;+ getNota(): double&amp;nbsp; &amp;nbsp; &amp;nbsp; &amp;nbsp; &amp;nbsp; &amp;nbsp; &amp;nbsp; &amp;nbsp; &amp;nbsp; &amp;nbsp; &amp;nbsp; &amp;nbsp; &amp;nbsp; &amp;nbsp; &amp;nbsp; &amp;nbsp; &amp;nbsp; &amp;nbsp; &amp;nbsp; &amp;nbsp; &amp;nbsp; &amp;nbsp; &amp;nbsp;&lt;/div&gt;&lt;div&gt;&lt;span style=&quot;background-color: initial;&quot;&gt;+ setNombre(String nombre): void&amp;nbsp; &amp;nbsp;&amp;nbsp;&lt;/span&gt;&lt;/div&gt;&lt;div&gt;+ setNota(double nota): void&amp;nbsp; &amp;nbsp; &amp;nbsp; &amp;nbsp;&amp;nbsp;&lt;/div&gt;&lt;div&gt;&lt;br&gt;&lt;/div&gt;&lt;div&gt;+ nombreBurbuja(Alumno[]listaAlumnos): void&amp;nbsp;&lt;/div&gt;&lt;div&gt;+ notaBurbuja(Alumno[] listaAlumnos): void&amp;nbsp;&lt;/div&gt;&lt;div&gt;+ toString(): String&amp;nbsp; &amp;nbsp; &amp;nbsp; &amp;nbsp; &amp;nbsp; &amp;nbsp; &amp;nbsp; &amp;nbsp; &amp;nbsp;&lt;/div&gt;&lt;div&gt;+ agregarAlumno(): Alumno&lt;br&gt;&lt;/div&gt;" style="text;strokeColor=none;fillColor=none;align=left;verticalAlign=top;spacingLeft=4;spacingRight=4;overflow=hidden;rotatable=0;points=[[0,0.5],[1,0.5]];portConstraint=eastwest;whiteSpace=wrap;html=1;fontSize=16;" vertex="1" parent="PYzLh-I4QtLLchsuRqWH-5">
          <mxGeometry y="99" width="373" height="234" as="geometry" />
        </mxCell>
      </root>
    </mxGraphModel>
  </diagram>
</mxfile>
